<svg xmlns="http://www.w3.org/2000/svg" viewBox="0 0 1128 284"><defs><style>.a{fill:#eaf0f4;}.b{fill:#f0f2f8;}.c{fill:none;stroke:#a3a0fb;stroke-width:2px;}.d,.f{fill:#43425d;font-size:11px;font-family:SourceSansPro-Regular, Source Sans Pro;}.d,.e{opacity:0.5;}</style></defs><g transform="translate(-290 -265)"><path class="a" d="M18,261V-3h1V16H229V-3h1V16H440V-3h1V16H651V-3h1V16H862V-3h1V16h205v1H863V77h205V-3h1V199h.253v1H1069v61Zm1050-1V200H863v60Zm-206,0V200H652v60Zm-211,0V200H441v60Zm-211,0V200H230v60Zm-211,0V200H19.253v-1H229V139H19V260Zm839-61V139H863v60Zm-206,0V139H652v60Zm-211,0V139H441v60Zm-211,0V139H230v60Zm628-61V78H863v60Zm-206,0V78H652v60Zm-211,0V78H441v60Zm-211,0V78H230v60Zm-211,0V78H19v60ZM862,77V17H652V77ZM651,77V17H441V77ZM440,77V17H230V77ZM229,77V17H19V77Z" transform="translate(312 268)"/><g transform="translate(0 -23.131)"><path class="b" d="M1091,243V148a7,7,0,0,1,14,0v95Zm-34,0V163a7,7,0,1,1,14,0v80Zm-34,0V101a7,7,0,1,1,14,0V243Zm-34,0V148a7,7,0,0,1,14,0v95Zm-34,0V122a7,7,0,1,1,14,0V243Zm-34,0V118a7,7,0,0,1,14,0V243Zm-34,0V94a7,7,0,0,1,14,0V243Zm-34,0V130a7,7,0,0,1,14,0V243Zm-34,0V143a7,7,0,0,1,14,0V243Zm-34,0V122a7,7,0,0,1,14,0V243Zm-34,0V198a7,7,0,1,1,14,0v45Zm-34,0V153a7,7,0,1,1,14,0v90Zm-34,0V139a7,7,0,0,1,14,0V243Zm-34,0V121a7,7,0,0,1,14,0V243Zm-34,0V161a7,7,0,0,1,14,0v82Zm-34,0V153a7,7,0,1,1,14,0v90Zm-34,0V67a7,7,0,0,1,14,0V243Zm-34,0V211a7,7,0,0,1,14,0v32Zm-34,0V121a7,7,0,0,1,14,0V243Zm-34,0V169a7,7,0,1,1,14,0v74Zm-34,0V108a7,7,0,1,1,14,0V243Zm-34,0V148a7,7,0,0,1,14,0v95Zm-34,0V73a7,7,0,1,1,14,0V243Zm-34,0V172a7,7,0,0,1,14,0v71Zm-34,0V153a7,7,0,1,1,14,0v90Zm-34,0V112a7,7,0,0,1,14,0V243Zm-34,0V186a7,7,0,0,1,14,0v57Zm-34,0V158a7,7,0,0,1,14,0v85Zm-34,0V131a7,7,0,0,1,14,0V243Zm-34,0V161a7,7,0,1,1,14,0v82Zm-34,0V198a7,7,0,1,1,14,0v45Z" transform="translate(267 309.131)"/><path class="c" d="M327.138,419.406s9.189-79.211,28.3-79.211,21.907,22.013,39.923,22.013,14.486-47.451,33-47.963S463.9,397.16,496.93,398.953s54.992-65.062,69.372-65.062,17.959,24.979,32.737,24.979,14.6-49.264,31.018-49.264,9.9,62.988,36.267,62.988,51.91-28.312,68.383-28.312,43.178,39.321,67.349,38.8,49.78-67.587,71.875-67.587,74.121,67.441,99.6,67.587,21.2-39.341,37.945-39.341,15.042,36.978,30.242,37,21.646-27.71,34.824-28.039,43.919,66.4,66.158,66.7,17.106-32,34.3-41.5,20.1,25.645,37.031,18.076,14.009-35.342,30.713-48.353,41.931,20,67.809,20,34.73-39.975,34.73-39.975" transform="translate(17.796 108.893)"/></g><g transform="translate(0 -32)"><text class="d" transform="translate(339 578)"><tspan x="0" y="0">Nov 10, 2017</tspan></text><text class="d" transform="translate(1372 578)"><tspan x="-57.178" y="0">Dec 10, 2017</tspan></text></g><g class="e" transform="translate(0 -32)"><text class="f" transform="translate(290 560)"><tspan x="0" y="0">$5k</tspan></text><text class="f" transform="translate(290 499)"><tspan x="0" y="0">$10k</tspan></text><text class="f" transform="translate(290 439)"><tspan x="0" y="0">$15k</tspan></text><text class="f" transform="translate(290 377)"><tspan x="0" y="0">$20k</tspan></text><text class="f" transform="translate(290 316)"><tspan x="0" y="0">$25k</tspan></text></g><g class="e" transform="translate(1106 -32)"><text class="f" transform="translate(290 560)"><tspan x="0" y="0">$5k</tspan></text><text class="f" transform="translate(290 499)"><tspan x="0" y="0">$10k</tspan></text><text class="f" transform="translate(290 439)"><tspan x="0" y="0">$15k</tspan></text><text class="f" transform="translate(290 377)"><tspan x="0" y="0">$20k</tspan></text><text class="f" transform="translate(290 316)"><tspan x="0" y="0">$25k</tspan></text></g></g></svg>